<svg t="1619092242656" class="icon" viewBox="0 0 1288 1024" version="1.1" xmlns="http://www.w3.org/2000/svg" p-id="4221" width="200" height="200"><path d="M237.191796 847.161272A214.523816 214.523816 0 1 0 489.499579 500.14157a214.523816 214.523816 0 1 0-252.309783 347.019702z" fill="#FFFFFF" p-id="4222"></path><path d="M322.386723 833.689284a214.523816 214.523816 0 1 0 252.308783-347.019702 214.523816 214.523816 0 1 0-252.309783 347.019702z" fill="#FFE771" p-id="4223"></path><path d="M362.914688 904.518223a230.812802 230.812802 0 1 1 136.011883-417.482642A230.812802 230.812802 0 0 1 362.914688 904.519223z m0-429.047632a198.23483 198.23483 0 1 0 116.3019 37.789968 197.25783 197.25783 0 0 0-115.6499-37.789968z" p-id="4224"></path><path d="M856.107264 847.241272a214.523816 214.523816 0 1 0 252.309783-347.019702 214.523816 214.523816 0 1 0-252.309783 347.019702z" fill="#FFFFFF" p-id="4225"></path><path d="M941.467191 833.602284a214.523816 214.523816 0 1 0 252.308783-347.019702 214.523816 214.523816 0 1 0-252.309783 347.019702z" fill="#FFE771" p-id="4226"></path><path d="M981.889156 904.518223a230.812802 230.812802 0 1 1 136.012883-417.482642A230.812802 230.812802 0 0 1 981.889156 904.519223z m0-429.047632a198.07183 198.07183 0 1 0 116.3029 37.789968 197.25783 197.25783 0 0 0-115.6499-37.789968z" p-id="4227"></path><path d="M684.129412 888.229237s0 48.865958-32.576972 65.154944a70.529939 70.529939 0 0 1 32.577972 65.155944s0-48.866958 32.577972-65.155944a70.529939 70.529939 0 0 1-32.577972-65.154944z m537.531538-651.55244s0 48.865958-32.576972 65.154944a70.529939 70.529939 0 0 1 32.576972 65.154944s0-48.865958 32.577972-65.154944a70.529939 70.529939 0 0 1-32.577972-65.154944zM16.289986 334.409713s0 24.432979-16.288986 32.576972a35.34697 35.34697 0 0 1 16.288986 32.577972s0-24.432979 16.288986-32.577972a35.34697 35.34697 0 0 1-16.289986-32.576972z" fill="#FFE771" p-id="4228"></path><path d="M261.354775 361.25369a95.777918 95.777918 0 1 0 182.014844-59.701949 95.777918 95.777918 0 1 0-182.014844 59.701949z" fill="#FFFFFF" p-id="4229"></path><path d="M295.695746 378.666675a95.777918 95.777918 0 1 0 182.014843-59.702949 95.777918 95.777918 0 1 0-182.014843 59.702949z" fill="#02F0FE" p-id="4230"></path><path d="M352.489697 443.381619a112.066904 112.066904 0 1 1 34.85797-5.537995 112.229904 112.229904 0 0 1-34.85797 5.537995z m0-191.556835a79.489932 79.489932 0 1 0 75.579935 54.729953 79.651932 79.651932 0 0 0-75.742935-54.729953z" p-id="4231"></path><path d="M353.141697 252.639783a16.288986 16.288986 0 0 1-3.583997-31.437973A95.940918 95.940918 0 1 0 232.4418 121.189896a16.288986 16.288986 0 0 1-16.289986 14.822987 16.288986 16.288986 0 0 1-14.821987-16.289986 127.70389 127.70389 0 1 1 155.883866 133.079886z" p-id="4232"></path><path d="M243.115791 785.861325a95.777918 95.777918 0 1 0 182.015844-59.702949 95.777918 95.777918 0 1 0-182.015844 59.702949z" fill="#FFFFFF" p-id="4233"></path><path d="M277.623761 803.27231a95.777918 95.777918 0 1 0 182.014844-59.701949 95.777918 95.777918 0 1 0-182.014844 59.702949z" fill="#FF40F7" p-id="4234"></path><path d="M334.246713 868.031254a112.066904 112.066904 0 1 1 106.365908-146.599874 112.066904 112.066904 0 0 1-106.365908 146.599874z m0-191.556835a79.651932 79.651932 0 1 0 35.834969 8.632992 79.651932 79.651932 0 0 0-35.834969-8.632992z" p-id="4235"></path><path d="M880.284244 361.19869a95.777918 95.777918 0 1 0 182.014843-59.702949A95.777918 95.777918 0 1 0 880.284244 361.19969z" fill="#FFFFFF" p-id="4236"></path><path d="M914.625214 378.772674a95.777918 95.777918 0 1 0 182.014844-59.701948 95.777918 95.777918 0 1 0-182.014844 59.701948z" fill="#02F0FE" p-id="4237"></path><path d="M971.465165 443.381619a112.066904 112.066904 0 1 1 34.85797-5.537995 112.229904 112.229904 0 0 1-34.85797 5.537995z m0-191.556835a79.489932 79.489932 0 1 0 75.416935 54.729953 79.489932 79.489932 0 0 0-75.416935-54.729953z" p-id="4238"></path><path d="M972.116165 252.639783a16.288986 16.288986 0 0 1-3.582997-31.437973A95.940918 95.940918 0 1 0 851.416268 121.189896a16.288986 16.288986 0 0 1-16.288986 14.822987 16.288986 16.288986 0 0 1-14.821987-16.289986 127.70389 127.70389 0 1 1 155.883866 133.079886z" p-id="4239"></path><path d="M862.212259 785.966325a95.777918 95.777918 0 1 0 182.014844-59.701949 95.777918 95.777918 0 1 0-182.014844 59.701949z" fill="#FFFFFF" p-id="4240"></path><path d="M896.55323 803.37931a95.777918 95.777918 0 1 0 182.014843-59.702949 95.777918 95.777918 0 1 0-182.014843 59.702949z" fill="#FF40F7" p-id="4241"></path><path d="M953.221181 868.031254a112.066904 112.066904 0 1 1 34.85897-5.537995 112.229904 112.229904 0 0 1-34.85897 5.537995z m0-191.556835A79.489932 79.489932 0 1 0 977.32916 830.729286a79.489932 79.489932 0 0 0 50.657957-100.338914 79.651932 79.651932 0 0 0-75.416936-54.729953z" p-id="4242"></path></svg>